<svg xmlns="http://www.w3.org/2000/svg" viewBox="0 0 512 512" width="512" height="512">
  <style>
    .fa-primary { fill: #6c757d; }
  </style>
  <path class="fa-primary" d="M152.1 38.2c9.9 8.9 10.7 24 1.8 33.9l-72 80c-4.4 4.9-10.6 7.8-17.2 7.9s-12.9-2.4-17.6-7L7 113C-2.3 103.6-2.3 88.4 7 79s24.6-9.4 33.9 0l22.1 22.1 55.1-61.2c8.9-9.9 24-10.7 33.9-1.8zm0 160c9.9 8.9 10.7 24 1.8 33.9l-72 80c-4.4 4.9-10.6 7.8-17.2 7.9s-12.9-2.4-17.6-7L7 273c-9.4-9.4-9.4-24.6 0-33.9s24.6-9.4 33.9 0l22.1 22.1 55.1-61.2c8.9-9.9 24-10.7 33.9-1.8zM224 96c0-17.7 14.3-32 32-32H480c17.7 0 32 14.3 32 32V416c0 17.7-14.3 32-32 32H256c-17.7 0-32-14.3-32-32V96zM64 256c-8.8 0-16 7.2-16 16v64c0 8.8 7.2 16 16 16H96c8.8 0 16-7.2 16-16V272c0-8.8-7.2-16-16-16H64zM48 176c0-8.8 7.2-16 16-16h64c8.8 0 16 7.2 16 16v64c0 8.8-7.2 16-16 16H64c-8.8 0-16-7.2-16-16V176zM256 160h96c8.8 0 16 7.2 16 16v64c0 8.8-7.2 16-16 16H256c-8.8 0-16-7.2-16-16V176c0-8.8 7.2-16 16-16zm-48 80v96c0 8.8 7.2 16 16 16h96c8.8 0 16-7.2 16-16V240c0-8.8-7.2-16-16-16H224c-8.8 0-16 7.2-16 16zM400 272c0-8.8 7.2-16 16-16h64c8.8 0 16 7.2 16 16v64c0 8.8-7.2 16-16 16H416c-8.8 0-16-7.2-16-16V272zM256 400h160c8.8 0 16 7.2 16 16v64c0 8.8-7.2 16-16 16H256c-8.8 0-16-7.2-16-16V416c0-8.8 7.2-16 16-16zM48 400h64c8.8 0 16 7.2 16 16v64c0 8.8-7.2 16-16 16H48c-8.8 0-16-7.2-16-16V416c0-8.8 7.2-16 16-16z"/>
</svg> 