<?xml version="1.0" encoding="UTF-8"?>
<svg width="512" height="512" viewBox="0 0 512 512" version="1.1" xmlns="http://www.w3.org/2000/svg">
    <style>
        .bg { fill: #f8f9fa; }
        .border { fill: none; stroke: #dee2e6; stroke-width: 2; }
        .icon { fill: #adb5bd; }
    </style>
    <!-- 背景 -->
    <rect class="bg" x="0" y="0" width="512" height="512" rx="12"/>
    <!-- 邊框 -->
    <rect class="border" x="1" y="1" width="510" height="510" rx="11"/>
    <!-- 相機圖標 -->
    <path class="icon" d="M324 256c0 38.66-31.34 70-70 70s-70-31.34-70-70 31.34-70 70-70 70 31.34 70 70zm90-110h-16.72c-4.48-12.81-16.43-22-30.28-22h-16l-4.08-12.24C341.46 94.14 326 82 308.88 82H203.12c-17.12 0-32.58 12.14-38.04 29.76L161 124h-16c-13.85 0-25.8 9.19-30.28 22H98c-25.36 0-46 20.64-46 46v200c0 25.36 20.64 46 46 46h316c25.36 0 46-20.64 46-46V192c0-25.36-20.64-46-46-46zm-158 50c-33.08 0-60 26.92-60 60s26.92 60 60 60 60-26.92 60-60-26.92-60-60-60z"/>
</svg> 